<mxfile host="65bd71144e" pages="5">
    <diagram id="RsqJ2L5GWaceqBMa1oMN" name="Dashboard">
        <mxGraphModel dx="1118" dy="514" grid="1" gridSize="10" guides="1" tooltips="1" connect="1" arrows="1" fold="1" page="1" pageScale="1" pageWidth="850" pageHeight="1100" math="0" shadow="0">
            <root>
                <mxCell id="0"/>
                <mxCell id="1" parent="0"/>
                <mxCell id="-zI02Tw2x8Ws5lId5HFe-1" value="" style="rounded=0;whiteSpace=wrap;html=1;" parent="1" vertex="1">
                    <mxGeometry x="14" y="290" width="822.86" height="480" as="geometry"/>
                </mxCell>
                <mxCell id="-zI02Tw2x8Ws5lId5HFe-2" value="" style="rounded=0;whiteSpace=wrap;html=1;" parent="1" vertex="1">
                    <mxGeometry x="20" y="300" width="810" height="60" as="geometry"/>
                </mxCell>
                <mxCell id="-zI02Tw2x8Ws5lId5HFe-3" value="LOGO" style="rounded=0;whiteSpace=wrap;html=1;" parent="1" vertex="1">
                    <mxGeometry x="30" y="315" width="60" height="30" as="geometry"/>
                </mxCell>
                <mxCell id="-zI02Tw2x8Ws5lId5HFe-4" value="Login" style="rounded=0;whiteSpace=wrap;html=1;" parent="1" vertex="1">
                    <mxGeometry x="750" y="315" width="70" height="30" as="geometry"/>
                </mxCell>
                <mxCell id="-zI02Tw2x8Ws5lId5HFe-5" value="Contact" style="rounded=0;whiteSpace=wrap;html=1;" parent="1" vertex="1">
                    <mxGeometry x="120" y="315" width="60" height="30" as="geometry"/>
                </mxCell>
                <mxCell id="-zI02Tw2x8Ws5lId5HFe-6" value="Guidelines" style="rounded=0;whiteSpace=wrap;html=1;" parent="1" vertex="1">
                    <mxGeometry x="190" y="315" width="60" height="30" as="geometry"/>
                </mxCell>
                <mxCell id="-zI02Tw2x8Ws5lId5HFe-7" value="About" style="rounded=0;whiteSpace=wrap;html=1;" parent="1" vertex="1">
                    <mxGeometry x="260" y="315" width="60" height="30" as="geometry"/>
                </mxCell>
                <mxCell id="-zI02Tw2x8Ws5lId5HFe-8" value="" style="rounded=0;whiteSpace=wrap;html=1;" parent="1" vertex="1">
                    <mxGeometry x="20" y="370" width="810" height="360" as="geometry"/>
                </mxCell>
                <mxCell id="-zI02Tw2x8Ws5lId5HFe-9" value="" style="rounded=0;whiteSpace=wrap;html=1;" parent="1" vertex="1">
                    <mxGeometry x="110" y="380" width="160" height="30" as="geometry"/>
                </mxCell>
                <mxCell id="-zI02Tw2x8Ws5lId5HFe-10" value="" style="rounded=0;whiteSpace=wrap;html=1;" parent="1" vertex="1">
                    <mxGeometry x="350" y="380" width="167.5" height="30" as="geometry"/>
                </mxCell>
                <mxCell id="-zI02Tw2x8Ws5lId5HFe-11" value="" style="rounded=0;whiteSpace=wrap;html=1;" parent="1" vertex="1">
                    <mxGeometry x="580" y="380" width="167.5" height="30" as="geometry"/>
                </mxCell>
                <mxCell id="-zI02Tw2x8Ws5lId5HFe-12" value="" style="rounded=0;whiteSpace=wrap;html=1;" parent="1" vertex="1">
                    <mxGeometry x="30" y="430" width="790" height="290" as="geometry"/>
                </mxCell>
                <mxCell id="-zI02Tw2x8Ws5lId5HFe-13" value="Category" style="text;strokeColor=none;fillColor=none;align=left;verticalAlign=middle;spacingLeft=4;spacingRight=4;overflow=hidden;points=[[0,0.5],[1,0.5]];portConstraint=eastwest;rotatable=0;" parent="1" vertex="1">
                    <mxGeometry x="40" y="380" width="80" height="30" as="geometry"/>
                </mxCell>
                <mxCell id="-zI02Tw2x8Ws5lId5HFe-14" value="Terminal" style="text;strokeColor=none;fillColor=none;align=left;verticalAlign=middle;spacingLeft=4;spacingRight=4;overflow=hidden;points=[[0,0.5],[1,0.5]];portConstraint=eastwest;rotatable=0;" parent="1" vertex="1">
                    <mxGeometry x="280" y="380" width="80" height="30" as="geometry"/>
                </mxCell>
                <mxCell id="-zI02Tw2x8Ws5lId5HFe-15" value="Date" style="text;strokeColor=none;fillColor=none;align=left;verticalAlign=middle;spacingLeft=4;spacingRight=4;overflow=hidden;points=[[0,0.5],[1,0.5]];portConstraint=eastwest;rotatable=0;" parent="1" vertex="1">
                    <mxGeometry x="530" y="380" width="40" height="30" as="geometry"/>
                </mxCell>
                <mxCell id="-zI02Tw2x8Ws5lId5HFe-16" style="edgeStyle=orthogonalEdgeStyle;rounded=0;orthogonalLoop=1;jettySize=auto;html=1;exitX=1;exitY=1;exitDx=0;exitDy=0;entryX=1;entryY=1;entryDx=0;entryDy=0;" parent="1" source="-zI02Tw2x8Ws5lId5HFe-17" target="-zI02Tw2x8Ws5lId5HFe-19" edge="1">
                    <mxGeometry relative="1" as="geometry"/>
                </mxCell>
                <mxCell id="-zI02Tw2x8Ws5lId5HFe-17" value="" style="rounded=0;whiteSpace=wrap;html=1;" parent="1" vertex="1">
                    <mxGeometry x="790" y="380" width="30" height="30" as="geometry"/>
                </mxCell>
                <mxCell id="-zI02Tw2x8Ws5lId5HFe-18" style="edgeStyle=orthogonalEdgeStyle;rounded=0;orthogonalLoop=1;jettySize=auto;html=1;exitX=1;exitY=1;exitDx=0;exitDy=0;entryX=0.75;entryY=1;entryDx=0;entryDy=0;" parent="1" source="-zI02Tw2x8Ws5lId5HFe-19" target="-zI02Tw2x8Ws5lId5HFe-17" edge="1">
                    <mxGeometry relative="1" as="geometry"/>
                </mxCell>
                <mxCell id="-zI02Tw2x8Ws5lId5HFe-19" value="" style="ellipse;whiteSpace=wrap;html=1;aspect=fixed;" parent="1" vertex="1">
                    <mxGeometry x="790" y="380" width="20" height="20" as="geometry"/>
                </mxCell>
                <mxCell id="-zI02Tw2x8Ws5lId5HFe-21" value="" style="rounded=0;whiteSpace=wrap;html=1;" parent="1" vertex="1">
                    <mxGeometry x="19.43" y="735" width="810" height="30" as="geometry"/>
                </mxCell>
                <mxCell id="-zI02Tw2x8Ws5lId5HFe-22" value="Footer" style="text;strokeColor=none;fillColor=none;align=left;verticalAlign=middle;spacingLeft=4;spacingRight=4;overflow=hidden;points=[[0,0.5],[1,0.5]];portConstraint=eastwest;rotatable=0;" parent="1" vertex="1">
                    <mxGeometry x="40" y="730" width="750" height="30" as="geometry"/>
                </mxCell>
            </root>
        </mxGraphModel>
    </diagram>
    <diagram id="M2zzSiI9wssCDSpTGpSr" name="Contacts">
        <mxGraphModel dx="1054" dy="604" grid="1" gridSize="10" guides="1" tooltips="1" connect="1" arrows="1" fold="1" page="1" pageScale="1" pageWidth="850" pageHeight="1100" math="0" shadow="0">
            <root>
                <mxCell id="jX6fapn6x3Cl87dnBTSe-0"/>
                <mxCell id="jX6fapn6x3Cl87dnBTSe-1" parent="jX6fapn6x3Cl87dnBTSe-0"/>
                <mxCell id="jX6fapn6x3Cl87dnBTSe-2" value="" style="rounded=0;whiteSpace=wrap;html=1;" parent="jX6fapn6x3Cl87dnBTSe-1" vertex="1">
                    <mxGeometry x="14" y="290" width="822.86" height="480" as="geometry"/>
                </mxCell>
                <mxCell id="jX6fapn6x3Cl87dnBTSe-3" value="" style="rounded=0;whiteSpace=wrap;html=1;" parent="jX6fapn6x3Cl87dnBTSe-1" vertex="1">
                    <mxGeometry x="20" y="300" width="810" height="60" as="geometry"/>
                </mxCell>
                <mxCell id="jX6fapn6x3Cl87dnBTSe-4" value="LOGO" style="rounded=0;whiteSpace=wrap;html=1;" parent="jX6fapn6x3Cl87dnBTSe-1" vertex="1">
                    <mxGeometry x="30" y="315" width="60" height="30" as="geometry"/>
                </mxCell>
                <mxCell id="jX6fapn6x3Cl87dnBTSe-5" value="Login" style="rounded=0;whiteSpace=wrap;html=1;" parent="jX6fapn6x3Cl87dnBTSe-1" vertex="1">
                    <mxGeometry x="750" y="315" width="70" height="30" as="geometry"/>
                </mxCell>
                <mxCell id="jX6fapn6x3Cl87dnBTSe-6" value="Contact" style="rounded=0;whiteSpace=wrap;html=1;" parent="jX6fapn6x3Cl87dnBTSe-1" vertex="1">
                    <mxGeometry x="120" y="315" width="60" height="30" as="geometry"/>
                </mxCell>
                <mxCell id="jX6fapn6x3Cl87dnBTSe-7" value="Guidelines" style="rounded=0;whiteSpace=wrap;html=1;" parent="jX6fapn6x3Cl87dnBTSe-1" vertex="1">
                    <mxGeometry x="190" y="315" width="60" height="30" as="geometry"/>
                </mxCell>
                <mxCell id="jX6fapn6x3Cl87dnBTSe-8" value="About" style="rounded=0;whiteSpace=wrap;html=1;" parent="jX6fapn6x3Cl87dnBTSe-1" vertex="1">
                    <mxGeometry x="260" y="315" width="60" height="30" as="geometry"/>
                </mxCell>
                <mxCell id="jX6fapn6x3Cl87dnBTSe-9" value="" style="rounded=0;whiteSpace=wrap;html=1;" parent="jX6fapn6x3Cl87dnBTSe-1" vertex="1">
                    <mxGeometry x="20" y="370" width="810" height="360" as="geometry"/>
                </mxCell>
                <mxCell id="jX6fapn6x3Cl87dnBTSe-10" value="" style="rounded=0;whiteSpace=wrap;html=1;" parent="jX6fapn6x3Cl87dnBTSe-1" vertex="1">
                    <mxGeometry x="260" y="380" width="120" height="30" as="geometry"/>
                </mxCell>
                <mxCell id="jX6fapn6x3Cl87dnBTSe-11" value="" style="rounded=0;whiteSpace=wrap;html=1;" parent="jX6fapn6x3Cl87dnBTSe-1" vertex="1">
                    <mxGeometry x="180" y="430" width="640" height="290" as="geometry"/>
                </mxCell>
                <mxCell id="jX6fapn6x3Cl87dnBTSe-12" value="Airport Name" style="text;strokeColor=none;fillColor=none;align=left;verticalAlign=middle;spacingLeft=4;spacingRight=4;overflow=hidden;points=[[0,0.5],[1,0.5]];portConstraint=eastwest;rotatable=0;" parent="jX6fapn6x3Cl87dnBTSe-1" vertex="1">
                    <mxGeometry x="180" y="380" width="80" height="30" as="geometry"/>
                </mxCell>
                <mxCell id="jX6fapn6x3Cl87dnBTSe-13" value="Reserved" style="rounded=0;whiteSpace=wrap;html=1;" parent="jX6fapn6x3Cl87dnBTSe-1" vertex="1">
                    <mxGeometry x="30" y="380" width="140" height="340" as="geometry"/>
                </mxCell>
                <mxCell id="jX6fapn6x3Cl87dnBTSe-14" value="" style="rounded=0;whiteSpace=wrap;html=1;fillColor=none;" parent="jX6fapn6x3Cl87dnBTSe-1" vertex="1">
                    <mxGeometry x="19.43" y="735" width="810" height="30" as="geometry"/>
                </mxCell>
                <mxCell id="jX6fapn6x3Cl87dnBTSe-15" value="Footer" style="text;strokeColor=none;fillColor=none;align=left;verticalAlign=middle;spacingLeft=4;spacingRight=4;overflow=hidden;points=[[0,0.5],[1,0.5]];portConstraint=eastwest;rotatable=0;" parent="jX6fapn6x3Cl87dnBTSe-1" vertex="1">
                    <mxGeometry x="40" y="730" width="750" height="30" as="geometry"/>
                </mxCell>
                <mxCell id="jX6fapn6x3Cl87dnBTSe-16" value="Kolkata" style="text;strokeColor=none;fillColor=none;align=left;verticalAlign=middle;spacingLeft=4;spacingRight=4;overflow=hidden;points=[[0,0.5],[1,0.5]];portConstraint=eastwest;rotatable=0;" parent="jX6fapn6x3Cl87dnBTSe-1" vertex="1">
                    <mxGeometry x="190" y="440" width="80" height="30" as="geometry"/>
                </mxCell>
                <mxCell id="jX6fapn6x3Cl87dnBTSe-17" value="9847662224" style="text;strokeColor=none;fillColor=none;align=left;verticalAlign=middle;spacingLeft=4;spacingRight=4;overflow=hidden;points=[[0,0.5],[1,0.5]];portConstraint=eastwest;rotatable=0;" parent="jX6fapn6x3Cl87dnBTSe-1" vertex="1">
                    <mxGeometry x="320" y="440" width="80" height="30" as="geometry"/>
                </mxCell>
                <mxCell id="jX6fapn6x3Cl87dnBTSe-18" value="" style="rounded=0;whiteSpace=wrap;html=1;fillColor=#FFFFFF;" parent="jX6fapn6x3Cl87dnBTSe-1" vertex="1">
                    <mxGeometry x="790" y="440" width="20" height="270" as="geometry"/>
                </mxCell>
                <mxCell id="jX6fapn6x3Cl87dnBTSe-19" value="" style="rounded=0;whiteSpace=wrap;html=1;fillColor=#8F8F8F;" parent="jX6fapn6x3Cl87dnBTSe-1" vertex="1">
                    <mxGeometry x="795" y="445" width="10" height="105" as="geometry"/>
                </mxCell>
                <mxCell id="jX6fapn6x3Cl87dnBTSe-20" value="Kolkata" style="text;strokeColor=none;fillColor=none;align=left;verticalAlign=middle;spacingLeft=4;spacingRight=4;overflow=hidden;points=[[0,0.5],[1,0.5]];portConstraint=eastwest;rotatable=0;" parent="jX6fapn6x3Cl87dnBTSe-1" vertex="1">
                    <mxGeometry x="190" y="470" width="80" height="30" as="geometry"/>
                </mxCell>
                <mxCell id="jX6fapn6x3Cl87dnBTSe-21" value="9847662224" style="text;strokeColor=none;fillColor=none;align=left;verticalAlign=middle;spacingLeft=4;spacingRight=4;overflow=hidden;points=[[0,0.5],[1,0.5]];portConstraint=eastwest;rotatable=0;" parent="jX6fapn6x3Cl87dnBTSe-1" vertex="1">
                    <mxGeometry x="320" y="470" width="80" height="30" as="geometry"/>
                </mxCell>
                <mxCell id="jX6fapn6x3Cl87dnBTSe-22" value="Kolkata" style="text;strokeColor=none;fillColor=none;align=left;verticalAlign=middle;spacingLeft=4;spacingRight=4;overflow=hidden;points=[[0,0.5],[1,0.5]];portConstraint=eastwest;rotatable=0;" parent="jX6fapn6x3Cl87dnBTSe-1" vertex="1">
                    <mxGeometry x="190" y="500" width="80" height="30" as="geometry"/>
                </mxCell>
                <mxCell id="jX6fapn6x3Cl87dnBTSe-23" value="9847662224" style="text;strokeColor=none;fillColor=none;align=left;verticalAlign=middle;spacingLeft=4;spacingRight=4;overflow=hidden;points=[[0,0.5],[1,0.5]];portConstraint=eastwest;rotatable=0;" parent="jX6fapn6x3Cl87dnBTSe-1" vertex="1">
                    <mxGeometry x="320" y="500" width="80" height="30" as="geometry"/>
                </mxCell>
                <mxCell id="jX6fapn6x3Cl87dnBTSe-24" value="Kolkata" style="text;strokeColor=none;fillColor=none;align=left;verticalAlign=middle;spacingLeft=4;spacingRight=4;overflow=hidden;points=[[0,0.5],[1,0.5]];portConstraint=eastwest;rotatable=0;" parent="jX6fapn6x3Cl87dnBTSe-1" vertex="1">
                    <mxGeometry x="190" y="530" width="80" height="30" as="geometry"/>
                </mxCell>
                <mxCell id="jX6fapn6x3Cl87dnBTSe-25" value="9847662224" style="text;strokeColor=none;fillColor=none;align=left;verticalAlign=middle;spacingLeft=4;spacingRight=4;overflow=hidden;points=[[0,0.5],[1,0.5]];portConstraint=eastwest;rotatable=0;" parent="jX6fapn6x3Cl87dnBTSe-1" vertex="1">
                    <mxGeometry x="320" y="530" width="80" height="30" as="geometry"/>
                </mxCell>
                <mxCell id="jX6fapn6x3Cl87dnBTSe-26" value="Kolkata" style="text;strokeColor=none;fillColor=none;align=left;verticalAlign=middle;spacingLeft=4;spacingRight=4;overflow=hidden;points=[[0,0.5],[1,0.5]];portConstraint=eastwest;rotatable=0;" parent="jX6fapn6x3Cl87dnBTSe-1" vertex="1">
                    <mxGeometry x="190" y="560" width="80" height="30" as="geometry"/>
                </mxCell>
                <mxCell id="jX6fapn6x3Cl87dnBTSe-27" value="9847662224" style="text;strokeColor=none;fillColor=none;align=left;verticalAlign=middle;spacingLeft=4;spacingRight=4;overflow=hidden;points=[[0,0.5],[1,0.5]];portConstraint=eastwest;rotatable=0;" parent="jX6fapn6x3Cl87dnBTSe-1" vertex="1">
                    <mxGeometry x="320" y="560" width="80" height="30" as="geometry"/>
                </mxCell>
                <mxCell id="jX6fapn6x3Cl87dnBTSe-28" value="Kolkata" style="text;strokeColor=none;fillColor=none;align=left;verticalAlign=middle;spacingLeft=4;spacingRight=4;overflow=hidden;points=[[0,0.5],[1,0.5]];portConstraint=eastwest;rotatable=0;" parent="jX6fapn6x3Cl87dnBTSe-1" vertex="1">
                    <mxGeometry x="190" y="590" width="80" height="30" as="geometry"/>
                </mxCell>
                <mxCell id="jX6fapn6x3Cl87dnBTSe-29" value="9847662224" style="text;strokeColor=none;fillColor=none;align=left;verticalAlign=middle;spacingLeft=4;spacingRight=4;overflow=hidden;points=[[0,0.5],[1,0.5]];portConstraint=eastwest;rotatable=0;" parent="jX6fapn6x3Cl87dnBTSe-1" vertex="1">
                    <mxGeometry x="320" y="590" width="80" height="30" as="geometry"/>
                </mxCell>
                <mxCell id="jX6fapn6x3Cl87dnBTSe-30" value="Kolkata" style="text;strokeColor=none;fillColor=none;align=left;verticalAlign=middle;spacingLeft=4;spacingRight=4;overflow=hidden;points=[[0,0.5],[1,0.5]];portConstraint=eastwest;rotatable=0;" parent="jX6fapn6x3Cl87dnBTSe-1" vertex="1">
                    <mxGeometry x="190" y="620" width="80" height="30" as="geometry"/>
                </mxCell>
                <mxCell id="jX6fapn6x3Cl87dnBTSe-31" value="9847662224" style="text;strokeColor=none;fillColor=none;align=left;verticalAlign=middle;spacingLeft=4;spacingRight=4;overflow=hidden;points=[[0,0.5],[1,0.5]];portConstraint=eastwest;rotatable=0;" parent="jX6fapn6x3Cl87dnBTSe-1" vertex="1">
                    <mxGeometry x="320" y="620" width="80" height="30" as="geometry"/>
                </mxCell>
                <mxCell id="jX6fapn6x3Cl87dnBTSe-32" value="Kolkata" style="text;strokeColor=none;fillColor=none;align=left;verticalAlign=middle;spacingLeft=4;spacingRight=4;overflow=hidden;points=[[0,0.5],[1,0.5]];portConstraint=eastwest;rotatable=0;" parent="jX6fapn6x3Cl87dnBTSe-1" vertex="1">
                    <mxGeometry x="190" y="650" width="80" height="30" as="geometry"/>
                </mxCell>
                <mxCell id="jX6fapn6x3Cl87dnBTSe-33" value="9847662224" style="text;strokeColor=none;fillColor=none;align=left;verticalAlign=middle;spacingLeft=4;spacingRight=4;overflow=hidden;points=[[0,0.5],[1,0.5]];portConstraint=eastwest;rotatable=0;" parent="jX6fapn6x3Cl87dnBTSe-1" vertex="1">
                    <mxGeometry x="320" y="650" width="80" height="30" as="geometry"/>
                </mxCell>
            </root>
        </mxGraphModel>
    </diagram>
    <diagram id="SbFPP2QfQhPUepvXjZ7R" name="Guidelines">
        <mxGraphModel dx="1054" dy="604" grid="1" gridSize="10" guides="1" tooltips="1" connect="1" arrows="1" fold="1" page="1" pageScale="1" pageWidth="850" pageHeight="1100" math="0" shadow="0">
            <root>
                <mxCell id="WZJbS1ERe-_5Tbcb6y_j-0"/>
                <mxCell id="WZJbS1ERe-_5Tbcb6y_j-1" parent="WZJbS1ERe-_5Tbcb6y_j-0"/>
                <mxCell id="WZJbS1ERe-_5Tbcb6y_j-2" value="" style="rounded=0;whiteSpace=wrap;html=1;" parent="WZJbS1ERe-_5Tbcb6y_j-1" vertex="1">
                    <mxGeometry x="14" y="290" width="822.86" height="480" as="geometry"/>
                </mxCell>
                <mxCell id="WZJbS1ERe-_5Tbcb6y_j-3" value="" style="rounded=0;whiteSpace=wrap;html=1;" parent="WZJbS1ERe-_5Tbcb6y_j-1" vertex="1">
                    <mxGeometry x="20" y="300" width="810" height="60" as="geometry"/>
                </mxCell>
                <mxCell id="WZJbS1ERe-_5Tbcb6y_j-4" value="LOGO" style="rounded=0;whiteSpace=wrap;html=1;" parent="WZJbS1ERe-_5Tbcb6y_j-1" vertex="1">
                    <mxGeometry x="30" y="315" width="60" height="30" as="geometry"/>
                </mxCell>
                <mxCell id="WZJbS1ERe-_5Tbcb6y_j-5" value="Login" style="rounded=0;whiteSpace=wrap;html=1;" parent="WZJbS1ERe-_5Tbcb6y_j-1" vertex="1">
                    <mxGeometry x="750" y="315" width="70" height="30" as="geometry"/>
                </mxCell>
                <mxCell id="WZJbS1ERe-_5Tbcb6y_j-6" value="Contact" style="rounded=0;whiteSpace=wrap;html=1;" parent="WZJbS1ERe-_5Tbcb6y_j-1" vertex="1">
                    <mxGeometry x="120" y="315" width="60" height="30" as="geometry"/>
                </mxCell>
                <mxCell id="WZJbS1ERe-_5Tbcb6y_j-7" value="Guidelines" style="rounded=0;whiteSpace=wrap;html=1;" parent="WZJbS1ERe-_5Tbcb6y_j-1" vertex="1">
                    <mxGeometry x="190" y="315" width="60" height="30" as="geometry"/>
                </mxCell>
                <mxCell id="WZJbS1ERe-_5Tbcb6y_j-8" value="About" style="rounded=0;whiteSpace=wrap;html=1;" parent="WZJbS1ERe-_5Tbcb6y_j-1" vertex="1">
                    <mxGeometry x="260" y="315" width="60" height="30" as="geometry"/>
                </mxCell>
                <mxCell id="WZJbS1ERe-_5Tbcb6y_j-9" value="" style="rounded=0;whiteSpace=wrap;html=1;" parent="WZJbS1ERe-_5Tbcb6y_j-1" vertex="1">
                    <mxGeometry x="20" y="370" width="810" height="360" as="geometry"/>
                </mxCell>
                <mxCell id="WZJbS1ERe-_5Tbcb6y_j-10" value="" style="rounded=0;whiteSpace=wrap;html=1;" parent="WZJbS1ERe-_5Tbcb6y_j-1" vertex="1">
                    <mxGeometry x="180" y="420" width="640" height="300" as="geometry"/>
                </mxCell>
                <mxCell id="WZJbS1ERe-_5Tbcb6y_j-11" value="Reserved" style="rounded=0;whiteSpace=wrap;html=1;fillColor=none;" parent="WZJbS1ERe-_5Tbcb6y_j-1" vertex="1">
                    <mxGeometry x="30" y="380" width="140" height="340" as="geometry"/>
                </mxCell>
                <mxCell id="WZJbS1ERe-_5Tbcb6y_j-12" value="" style="rounded=0;whiteSpace=wrap;html=1;fillColor=none;" parent="WZJbS1ERe-_5Tbcb6y_j-1" vertex="1">
                    <mxGeometry x="19.43" y="735" width="810" height="30" as="geometry"/>
                </mxCell>
                <mxCell id="WZJbS1ERe-_5Tbcb6y_j-13" value="Footer" style="text;strokeColor=none;fillColor=none;align=left;verticalAlign=middle;spacingLeft=4;spacingRight=4;overflow=hidden;points=[[0,0.5],[1,0.5]];portConstraint=eastwest;rotatable=0;" parent="WZJbS1ERe-_5Tbcb6y_j-1" vertex="1">
                    <mxGeometry x="40" y="730" width="750" height="30" as="geometry"/>
                </mxCell>
                <mxCell id="WZJbS1ERe-_5Tbcb6y_j-14" value="Guidelines" style="text;strokeColor=none;fillColor=none;align=left;verticalAlign=middle;spacingLeft=4;spacingRight=4;overflow=hidden;points=[[0,0.5],[1,0.5]];portConstraint=eastwest;rotatable=0;" parent="WZJbS1ERe-_5Tbcb6y_j-1" vertex="1">
                    <mxGeometry x="180" y="380" width="80" height="30" as="geometry"/>
                </mxCell>
                <mxCell id="WZJbS1ERe-_5Tbcb6y_j-15" value="GuidelinesGuidelinesGuidelinesGuidelinesGuidelinesGuidelinesGuidelinesGuidelinesGuidelinesGuidelines" style="text;strokeColor=none;fillColor=none;align=left;verticalAlign=middle;spacingLeft=4;spacingRight=4;overflow=hidden;points=[[0,0.5],[1,0.5]];portConstraint=eastwest;rotatable=0;" parent="WZJbS1ERe-_5Tbcb6y_j-1" vertex="1">
                    <mxGeometry x="190" y="430" width="620" height="50" as="geometry"/>
                </mxCell>
            </root>
        </mxGraphModel>
    </diagram>
    <diagram id="4Vs9hMkelwKiYuXnCstP" name="About">
        <mxGraphModel dx="1054" dy="604" grid="1" gridSize="10" guides="1" tooltips="1" connect="1" arrows="1" fold="1" page="1" pageScale="1" pageWidth="850" pageHeight="1100" math="0" shadow="0">
            <root>
                <mxCell id="IrekBfnBV1_MyFJCBbKZ-0"/>
                <mxCell id="IrekBfnBV1_MyFJCBbKZ-1" parent="IrekBfnBV1_MyFJCBbKZ-0"/>
                <mxCell id="IrekBfnBV1_MyFJCBbKZ-2" value="" style="rounded=0;whiteSpace=wrap;html=1;" parent="IrekBfnBV1_MyFJCBbKZ-1" vertex="1">
                    <mxGeometry x="14" y="290" width="822.86" height="480" as="geometry"/>
                </mxCell>
                <mxCell id="IrekBfnBV1_MyFJCBbKZ-3" value="" style="rounded=0;whiteSpace=wrap;html=1;" parent="IrekBfnBV1_MyFJCBbKZ-1" vertex="1">
                    <mxGeometry x="20" y="300" width="810" height="60" as="geometry"/>
                </mxCell>
                <mxCell id="IrekBfnBV1_MyFJCBbKZ-4" value="LOGO" style="rounded=0;whiteSpace=wrap;html=1;" parent="IrekBfnBV1_MyFJCBbKZ-1" vertex="1">
                    <mxGeometry x="30" y="315" width="60" height="30" as="geometry"/>
                </mxCell>
                <mxCell id="IrekBfnBV1_MyFJCBbKZ-5" value="Login" style="rounded=0;whiteSpace=wrap;html=1;" parent="IrekBfnBV1_MyFJCBbKZ-1" vertex="1">
                    <mxGeometry x="750" y="315" width="70" height="30" as="geometry"/>
                </mxCell>
                <mxCell id="IrekBfnBV1_MyFJCBbKZ-6" value="Contact" style="rounded=0;whiteSpace=wrap;html=1;" parent="IrekBfnBV1_MyFJCBbKZ-1" vertex="1">
                    <mxGeometry x="120" y="315" width="60" height="30" as="geometry"/>
                </mxCell>
                <mxCell id="IrekBfnBV1_MyFJCBbKZ-7" value="Guidelines" style="rounded=0;whiteSpace=wrap;html=1;" parent="IrekBfnBV1_MyFJCBbKZ-1" vertex="1">
                    <mxGeometry x="190" y="315" width="60" height="30" as="geometry"/>
                </mxCell>
                <mxCell id="IrekBfnBV1_MyFJCBbKZ-8" value="About" style="rounded=0;whiteSpace=wrap;html=1;" parent="IrekBfnBV1_MyFJCBbKZ-1" vertex="1">
                    <mxGeometry x="260" y="315" width="60" height="30" as="geometry"/>
                </mxCell>
                <mxCell id="IrekBfnBV1_MyFJCBbKZ-9" value="" style="rounded=0;whiteSpace=wrap;html=1;" parent="IrekBfnBV1_MyFJCBbKZ-1" vertex="1">
                    <mxGeometry x="20" y="370" width="810" height="360" as="geometry"/>
                </mxCell>
                <mxCell id="IrekBfnBV1_MyFJCBbKZ-10" value="" style="rounded=0;whiteSpace=wrap;html=1;" parent="IrekBfnBV1_MyFJCBbKZ-1" vertex="1">
                    <mxGeometry x="180" y="430" width="640" height="290" as="geometry"/>
                </mxCell>
                <mxCell id="IrekBfnBV1_MyFJCBbKZ-11" value="Reserved" style="rounded=0;whiteSpace=wrap;html=1;fillColor=none;" parent="IrekBfnBV1_MyFJCBbKZ-1" vertex="1">
                    <mxGeometry x="30" y="380" width="140" height="340" as="geometry"/>
                </mxCell>
                <mxCell id="IrekBfnBV1_MyFJCBbKZ-12" value="" style="rounded=0;whiteSpace=wrap;html=1;fillColor=none;" parent="IrekBfnBV1_MyFJCBbKZ-1" vertex="1">
                    <mxGeometry x="19.43" y="735" width="810" height="30" as="geometry"/>
                </mxCell>
                <mxCell id="IrekBfnBV1_MyFJCBbKZ-13" value="Footer" style="text;strokeColor=none;fillColor=none;align=left;verticalAlign=middle;spacingLeft=4;spacingRight=4;overflow=hidden;points=[[0,0.5],[1,0.5]];portConstraint=eastwest;rotatable=0;" parent="IrekBfnBV1_MyFJCBbKZ-1" vertex="1">
                    <mxGeometry x="40" y="730" width="750" height="30" as="geometry"/>
                </mxCell>
                <mxCell id="IrekBfnBV1_MyFJCBbKZ-14" value="About" style="text;strokeColor=none;fillColor=none;align=left;verticalAlign=middle;spacingLeft=4;spacingRight=4;overflow=hidden;points=[[0,0.5],[1,0.5]];portConstraint=eastwest;rotatable=0;" parent="IrekBfnBV1_MyFJCBbKZ-1" vertex="1">
                    <mxGeometry x="180" y="380" width="80" height="30" as="geometry"/>
                </mxCell>
            </root>
        </mxGraphModel>
    </diagram>
    <diagram id="Sfj7_H16oJV_SP7s8rjQ" name="Login">
        <mxGraphModel dx="1054" dy="604" grid="1" gridSize="10" guides="1" tooltips="1" connect="1" arrows="1" fold="1" page="1" pageScale="1" pageWidth="850" pageHeight="1100" math="0" shadow="0">
            <root>
                <mxCell id="7oQnin1jy0d6hdgD8aVo-0"/>
                <mxCell id="7oQnin1jy0d6hdgD8aVo-1" parent="7oQnin1jy0d6hdgD8aVo-0"/>
                <mxCell id="7oQnin1jy0d6hdgD8aVo-2" value="" style="rounded=0;whiteSpace=wrap;html=1;" parent="7oQnin1jy0d6hdgD8aVo-1" vertex="1">
                    <mxGeometry x="14" y="290" width="822.86" height="480" as="geometry"/>
                </mxCell>
                <mxCell id="7oQnin1jy0d6hdgD8aVo-3" value="LOGO" style="rounded=0;whiteSpace=wrap;html=1;" parent="7oQnin1jy0d6hdgD8aVo-1" vertex="1">
                    <mxGeometry x="760" y="310" width="60" height="30" as="geometry"/>
                </mxCell>
                <mxCell id="7oQnin1jy0d6hdgD8aVo-5" value="Back To Home" style="rounded=0;whiteSpace=wrap;html=1;" parent="7oQnin1jy0d6hdgD8aVo-1" vertex="1">
                    <mxGeometry x="30" y="310" width="100" height="30" as="geometry"/>
                </mxCell>
                <mxCell id="7oQnin1jy0d6hdgD8aVo-6" value="" style="rounded=0;whiteSpace=wrap;html=1;" parent="7oQnin1jy0d6hdgD8aVo-1" vertex="1">
                    <mxGeometry x="400.43" y="480" width="130" height="30" as="geometry"/>
                </mxCell>
                <mxCell id="7oQnin1jy0d6hdgD8aVo-7" value="" style="rounded=0;whiteSpace=wrap;html=1;" parent="7oQnin1jy0d6hdgD8aVo-1" vertex="1">
                    <mxGeometry x="400.43" y="520" width="130" height="30" as="geometry"/>
                </mxCell>
                <mxCell id="7oQnin1jy0d6hdgD8aVo-8" value="Username" style="text;strokeColor=none;fillColor=none;align=left;verticalAlign=middle;spacingLeft=4;spacingRight=4;overflow=hidden;points=[[0,0.5],[1,0.5]];portConstraint=eastwest;rotatable=0;" parent="7oQnin1jy0d6hdgD8aVo-1" vertex="1">
                    <mxGeometry x="320.43" y="480" width="80" height="30" as="geometry"/>
                </mxCell>
                <mxCell id="7oQnin1jy0d6hdgD8aVo-9" value="Password" style="text;strokeColor=none;fillColor=none;align=left;verticalAlign=middle;spacingLeft=4;spacingRight=4;overflow=hidden;points=[[0,0.5],[1,0.5]];portConstraint=eastwest;rotatable=0;" parent="7oQnin1jy0d6hdgD8aVo-1" vertex="1">
                    <mxGeometry x="320.43" y="520" width="80" height="30" as="geometry"/>
                </mxCell>
                <mxCell id="7oQnin1jy0d6hdgD8aVo-10" value="Login" style="rounded=0;whiteSpace=wrap;html=1;" parent="7oQnin1jy0d6hdgD8aVo-1" vertex="1">
                    <mxGeometry x="395" y="570" width="60" height="30" as="geometry"/>
                </mxCell>
            </root>
        </mxGraphModel>
    </diagram>
    <diagram id="tnZM7NUc-mgvlJ2yHpHN" name="Admin Panel">
        <mxGraphModel dx="1054" dy="604" grid="1" gridSize="10" guides="1" tooltips="1" connect="1" arrows="1" fold="1" page="1" pageScale="1" pageWidth="827" pageHeight="1169" math="0" shadow="0">
            <root>
                <mxCell id="MvBxT6PkxRNAJLVtlSja-0"/>
                <mxCell id="MvBxT6PkxRNAJLVtlSja-1" parent="MvBxT6PkxRNAJLVtlSja-0"/>
                <mxCell id="d5lFS5929yJO_gwejZhG-0" value="" style="rounded=0;whiteSpace=wrap;html=1;" parent="MvBxT6PkxRNAJLVtlSja-1" vertex="1">
                    <mxGeometry x="14" y="290" width="822.86" height="480" as="geometry"/>
                </mxCell>
                <mxCell id="d5lFS5929yJO_gwejZhG-1" value="" style="rounded=0;whiteSpace=wrap;html=1;" parent="MvBxT6PkxRNAJLVtlSja-1" vertex="1">
                    <mxGeometry x="20" y="300" width="810" height="60" as="geometry"/>
                </mxCell>
                <mxCell id="d5lFS5929yJO_gwejZhG-2" value="LOGO" style="rounded=0;whiteSpace=wrap;html=1;" parent="MvBxT6PkxRNAJLVtlSja-1" vertex="1">
                    <mxGeometry x="30" y="315" width="60" height="30" as="geometry"/>
                </mxCell>
                <mxCell id="d5lFS5929yJO_gwejZhG-3" value="Log out" style="rounded=0;whiteSpace=wrap;html=1;" parent="MvBxT6PkxRNAJLVtlSja-1" vertex="1">
                    <mxGeometry x="750" y="315" width="70" height="30" as="geometry"/>
                </mxCell>
                <mxCell id="d5lFS5929yJO_gwejZhG-7" value="" style="rounded=0;whiteSpace=wrap;html=1;" parent="MvBxT6PkxRNAJLVtlSja-1" vertex="1">
                    <mxGeometry x="20" y="370" width="810" height="360" as="geometry"/>
                </mxCell>
                <mxCell id="d5lFS5929yJO_gwejZhG-11" value="" style="rounded=0;whiteSpace=wrap;html=1;" parent="MvBxT6PkxRNAJLVtlSja-1" vertex="1">
                    <mxGeometry x="30" y="430" width="790" height="290" as="geometry"/>
                </mxCell>
                <mxCell id="d5lFS5929yJO_gwejZhG-19" value="" style="rounded=0;whiteSpace=wrap;html=1;" parent="MvBxT6PkxRNAJLVtlSja-1" vertex="1">
                    <mxGeometry x="19.43" y="735" width="810" height="30" as="geometry"/>
                </mxCell>
                <mxCell id="d5lFS5929yJO_gwejZhG-20" value="Footer" style="text;strokeColor=none;fillColor=none;align=left;verticalAlign=middle;spacingLeft=4;spacingRight=4;overflow=hidden;points=[[0,0.5],[1,0.5]];portConstraint=eastwest;rotatable=0;" parent="MvBxT6PkxRNAJLVtlSja-1" vertex="1">
                    <mxGeometry x="40" y="730" width="750" height="30" as="geometry"/>
                </mxCell>
                <mxCell id="ncCTTMTo4Eoa407Xd3S4-2" value="" style="rounded=0;whiteSpace=wrap;html=1;" vertex="1" parent="MvBxT6PkxRNAJLVtlSja-1">
                    <mxGeometry x="30" y="430" width="130" height="50" as="geometry"/>
                </mxCell>
                <mxCell id="ncCTTMTo4Eoa407Xd3S4-7" value="" style="rounded=0;whiteSpace=wrap;html=1;" vertex="1" parent="MvBxT6PkxRNAJLVtlSja-1">
                    <mxGeometry x="160" y="430" width="130" height="50" as="geometry"/>
                </mxCell>
                <mxCell id="ncCTTMTo4Eoa407Xd3S4-8" value="" style="rounded=0;whiteSpace=wrap;html=1;" vertex="1" parent="MvBxT6PkxRNAJLVtlSja-1">
                    <mxGeometry x="290" y="430" width="130" height="50" as="geometry"/>
                </mxCell>
                <mxCell id="ncCTTMTo4Eoa407Xd3S4-9" value="" style="rounded=0;whiteSpace=wrap;html=1;" vertex="1" parent="MvBxT6PkxRNAJLVtlSja-1">
                    <mxGeometry x="420" y="430" width="130" height="50" as="geometry"/>
                </mxCell>
                <mxCell id="ncCTTMTo4Eoa407Xd3S4-10" value="" style="rounded=0;whiteSpace=wrap;html=1;" vertex="1" parent="MvBxT6PkxRNAJLVtlSja-1">
                    <mxGeometry x="550" y="430" width="130" height="50" as="geometry"/>
                </mxCell>
                <mxCell id="ncCTTMTo4Eoa407Xd3S4-11" value="" style="rounded=0;whiteSpace=wrap;html=1;" vertex="1" parent="MvBxT6PkxRNAJLVtlSja-1">
                    <mxGeometry x="680" y="430" width="140" height="50" as="geometry"/>
                </mxCell>
                <mxCell id="ncCTTMTo4Eoa407Xd3S4-14" value="" style="rounded=0;whiteSpace=wrap;html=1;" vertex="1" parent="MvBxT6PkxRNAJLVtlSja-1">
                    <mxGeometry x="29.43" y="480" width="130" height="50" as="geometry"/>
                </mxCell>
                <mxCell id="ncCTTMTo4Eoa407Xd3S4-15" value="" style="rounded=0;whiteSpace=wrap;html=1;" vertex="1" parent="MvBxT6PkxRNAJLVtlSja-1">
                    <mxGeometry x="159.43" y="480" width="130" height="50" as="geometry"/>
                </mxCell>
                <mxCell id="ncCTTMTo4Eoa407Xd3S4-16" value="" style="rounded=0;whiteSpace=wrap;html=1;" vertex="1" parent="MvBxT6PkxRNAJLVtlSja-1">
                    <mxGeometry x="289.43" y="480" width="130" height="50" as="geometry"/>
                </mxCell>
                <mxCell id="ncCTTMTo4Eoa407Xd3S4-17" value="" style="rounded=0;whiteSpace=wrap;html=1;" vertex="1" parent="MvBxT6PkxRNAJLVtlSja-1">
                    <mxGeometry x="419.43" y="480" width="130" height="50" as="geometry"/>
                </mxCell>
                <mxCell id="ncCTTMTo4Eoa407Xd3S4-18" value="" style="rounded=0;whiteSpace=wrap;html=1;" vertex="1" parent="MvBxT6PkxRNAJLVtlSja-1">
                    <mxGeometry x="549.43" y="480" width="130" height="50" as="geometry"/>
                </mxCell>
                <mxCell id="ncCTTMTo4Eoa407Xd3S4-19" value="" style="rounded=0;whiteSpace=wrap;html=1;" vertex="1" parent="MvBxT6PkxRNAJLVtlSja-1">
                    <mxGeometry x="679.43" y="480" width="140" height="50" as="geometry"/>
                </mxCell>
                <mxCell id="ncCTTMTo4Eoa407Xd3S4-20" value="" style="rounded=0;whiteSpace=wrap;html=1;" vertex="1" parent="MvBxT6PkxRNAJLVtlSja-1">
                    <mxGeometry x="29.43" y="530" width="130" height="50" as="geometry"/>
                </mxCell>
                <mxCell id="ncCTTMTo4Eoa407Xd3S4-21" value="" style="rounded=0;whiteSpace=wrap;html=1;" vertex="1" parent="MvBxT6PkxRNAJLVtlSja-1">
                    <mxGeometry x="159.43" y="530" width="130" height="50" as="geometry"/>
                </mxCell>
                <mxCell id="ncCTTMTo4Eoa407Xd3S4-22" value="" style="rounded=0;whiteSpace=wrap;html=1;" vertex="1" parent="MvBxT6PkxRNAJLVtlSja-1">
                    <mxGeometry x="289.43" y="530" width="130" height="50" as="geometry"/>
                </mxCell>
                <mxCell id="ncCTTMTo4Eoa407Xd3S4-23" value="" style="rounded=0;whiteSpace=wrap;html=1;" vertex="1" parent="MvBxT6PkxRNAJLVtlSja-1">
                    <mxGeometry x="419.43" y="530" width="130" height="50" as="geometry"/>
                </mxCell>
                <mxCell id="ncCTTMTo4Eoa407Xd3S4-24" value="" style="rounded=0;whiteSpace=wrap;html=1;" vertex="1" parent="MvBxT6PkxRNAJLVtlSja-1">
                    <mxGeometry x="549.43" y="530" width="130" height="50" as="geometry"/>
                </mxCell>
                <mxCell id="ncCTTMTo4Eoa407Xd3S4-25" value="" style="rounded=0;whiteSpace=wrap;html=1;" vertex="1" parent="MvBxT6PkxRNAJLVtlSja-1">
                    <mxGeometry x="679.43" y="530" width="140" height="50" as="geometry"/>
                </mxCell>
                <mxCell id="ncCTTMTo4Eoa407Xd3S4-26" value="" style="rounded=0;whiteSpace=wrap;html=1;" vertex="1" parent="MvBxT6PkxRNAJLVtlSja-1">
                    <mxGeometry x="29.86" y="580" width="130" height="50" as="geometry"/>
                </mxCell>
                <mxCell id="ncCTTMTo4Eoa407Xd3S4-27" value="" style="rounded=0;whiteSpace=wrap;html=1;" vertex="1" parent="MvBxT6PkxRNAJLVtlSja-1">
                    <mxGeometry x="159.86" y="580" width="130" height="50" as="geometry"/>
                </mxCell>
                <mxCell id="ncCTTMTo4Eoa407Xd3S4-28" value="" style="rounded=0;whiteSpace=wrap;html=1;" vertex="1" parent="MvBxT6PkxRNAJLVtlSja-1">
                    <mxGeometry x="289.86" y="580" width="130" height="50" as="geometry"/>
                </mxCell>
                <mxCell id="ncCTTMTo4Eoa407Xd3S4-29" value="" style="rounded=0;whiteSpace=wrap;html=1;" vertex="1" parent="MvBxT6PkxRNAJLVtlSja-1">
                    <mxGeometry x="419.86" y="580" width="130" height="50" as="geometry"/>
                </mxCell>
                <mxCell id="ncCTTMTo4Eoa407Xd3S4-30" value="" style="rounded=0;whiteSpace=wrap;html=1;" vertex="1" parent="MvBxT6PkxRNAJLVtlSja-1">
                    <mxGeometry x="549.8599999999999" y="580" width="130" height="50" as="geometry"/>
                </mxCell>
                <mxCell id="ncCTTMTo4Eoa407Xd3S4-31" value="" style="rounded=0;whiteSpace=wrap;html=1;" vertex="1" parent="MvBxT6PkxRNAJLVtlSja-1">
                    <mxGeometry x="679.8599999999999" y="580" width="140" height="50" as="geometry"/>
                </mxCell>
                <mxCell id="ncCTTMTo4Eoa407Xd3S4-32" value="Remove" style="rounded=0;whiteSpace=wrap;html=1;" vertex="1" parent="MvBxT6PkxRNAJLVtlSja-1">
                    <mxGeometry x="715" y="440" width="70" height="30" as="geometry"/>
                </mxCell>
                <mxCell id="ncCTTMTo4Eoa407Xd3S4-33" value="Remove" style="rounded=0;whiteSpace=wrap;html=1;" vertex="1" parent="MvBxT6PkxRNAJLVtlSja-1">
                    <mxGeometry x="715" y="490" width="70" height="30" as="geometry"/>
                </mxCell>
                <mxCell id="ncCTTMTo4Eoa407Xd3S4-34" value="Remove" style="rounded=0;whiteSpace=wrap;html=1;" vertex="1" parent="MvBxT6PkxRNAJLVtlSja-1">
                    <mxGeometry x="715" y="539" width="70" height="30" as="geometry"/>
                </mxCell>
                <mxCell id="ncCTTMTo4Eoa407Xd3S4-35" value="Remove" style="rounded=0;whiteSpace=wrap;html=1;" vertex="1" parent="MvBxT6PkxRNAJLVtlSja-1">
                    <mxGeometry x="715" y="589" width="70" height="30" as="geometry"/>
                </mxCell>
                <mxCell id="ncCTTMTo4Eoa407Xd3S4-36" value="Add Item" style="rounded=0;whiteSpace=wrap;html=1;" vertex="1" parent="MvBxT6PkxRNAJLVtlSja-1">
                    <mxGeometry x="715" y="380" width="70" height="30" as="geometry"/>
                </mxCell>
                <mxCell id="ncCTTMTo4Eoa407Xd3S4-37" value="Search" style="rounded=0;whiteSpace=wrap;html=1;" vertex="1" parent="MvBxT6PkxRNAJLVtlSja-1">
                    <mxGeometry x="350" y="380" width="70" height="30" as="geometry"/>
                </mxCell>
                <mxCell id="ncCTTMTo4Eoa407Xd3S4-38" value="Search Here" style="rounded=0;whiteSpace=wrap;html=1;" vertex="1" parent="MvBxT6PkxRNAJLVtlSja-1">
                    <mxGeometry x="30" y="380" width="310" height="30" as="geometry"/>
                </mxCell>
            </root>
        </mxGraphModel>
    </diagram>
    <diagram id="QRmADMej9v8sbkYiw8n6" name="Database">
        <mxGraphModel dx="1118" dy="514" grid="1" gridSize="10" guides="1" tooltips="1" connect="1" arrows="1" fold="1" page="1" pageScale="1" pageWidth="827" pageHeight="1169" math="0" shadow="0">
            <root>
                <mxCell id="U8JBfyUJ4JkSH4LKYdnJ-0"/>
                <mxCell id="U8JBfyUJ4JkSH4LKYdnJ-1" parent="U8JBfyUJ4JkSH4LKYdnJ-0"/>
                <mxCell id="U8JBfyUJ4JkSH4LKYdnJ-42" value="loginsystem" style="shape=table;startSize=30;container=1;collapsible=1;childLayout=tableLayout;fixedRows=1;rowLines=0;fontStyle=1;align=center;resizeLast=1;" vertex="1" parent="U8JBfyUJ4JkSH4LKYdnJ-1">
                    <mxGeometry x="230" y="210" width="270" height="160" as="geometry"/>
                </mxCell>
                <mxCell id="U8JBfyUJ4JkSH4LKYdnJ-43" value="" style="shape=partialRectangle;collapsible=0;dropTarget=0;pointerEvents=0;fillColor=none;top=0;left=0;bottom=1;right=0;points=[[0,0.5],[1,0.5]];portConstraint=eastwest;" vertex="1" parent="U8JBfyUJ4JkSH4LKYdnJ-42">
                    <mxGeometry y="30" width="270" height="30" as="geometry"/>
                </mxCell>
                <mxCell id="U8JBfyUJ4JkSH4LKYdnJ-44" value="dashboard_username" style="shape=partialRectangle;connectable=0;fillColor=none;top=0;left=0;bottom=0;right=0;fontStyle=1;overflow=hidden;" vertex="1" parent="U8JBfyUJ4JkSH4LKYdnJ-43">
                    <mxGeometry width="130" height="30" as="geometry"/>
                </mxCell>
                <mxCell id="U8JBfyUJ4JkSH4LKYdnJ-45" value="dashboard_password" style="shape=partialRectangle;connectable=0;fillColor=none;top=0;left=0;bottom=0;right=0;align=left;spacingLeft=6;fontStyle=1;overflow=hidden;" vertex="1" parent="U8JBfyUJ4JkSH4LKYdnJ-43">
                    <mxGeometry x="130" width="140" height="30" as="geometry"/>
                </mxCell>
                <mxCell id="U8JBfyUJ4JkSH4LKYdnJ-46" value="" style="shape=partialRectangle;collapsible=0;dropTarget=0;pointerEvents=0;fillColor=none;top=0;left=0;bottom=0;right=0;points=[[0,0.5],[1,0.5]];portConstraint=eastwest;" vertex="1" parent="U8JBfyUJ4JkSH4LKYdnJ-42">
                    <mxGeometry y="60" width="270" height="30" as="geometry"/>
                </mxCell>
                <mxCell id="U8JBfyUJ4JkSH4LKYdnJ-47" value="" style="shape=partialRectangle;connectable=0;fillColor=none;top=0;left=0;bottom=0;right=0;editable=1;overflow=hidden;" vertex="1" parent="U8JBfyUJ4JkSH4LKYdnJ-46">
                    <mxGeometry width="130" height="30" as="geometry"/>
                </mxCell>
                <mxCell id="U8JBfyUJ4JkSH4LKYdnJ-48" value="" style="shape=partialRectangle;connectable=0;fillColor=none;top=0;left=0;bottom=0;right=0;align=left;spacingLeft=6;overflow=hidden;" vertex="1" parent="U8JBfyUJ4JkSH4LKYdnJ-46">
                    <mxGeometry x="130" width="140" height="30" as="geometry"/>
                </mxCell>
                <mxCell id="U8JBfyUJ4JkSH4LKYdnJ-49" value="" style="shape=partialRectangle;collapsible=0;dropTarget=0;pointerEvents=0;fillColor=none;top=0;left=0;bottom=0;right=0;points=[[0,0.5],[1,0.5]];portConstraint=eastwest;" vertex="1" parent="U8JBfyUJ4JkSH4LKYdnJ-42">
                    <mxGeometry y="90" width="270" height="30" as="geometry"/>
                </mxCell>
                <mxCell id="U8JBfyUJ4JkSH4LKYdnJ-50" value="" style="shape=partialRectangle;connectable=0;fillColor=none;top=0;left=0;bottom=0;right=0;editable=1;overflow=hidden;" vertex="1" parent="U8JBfyUJ4JkSH4LKYdnJ-49">
                    <mxGeometry width="130" height="30" as="geometry"/>
                </mxCell>
                <mxCell id="U8JBfyUJ4JkSH4LKYdnJ-51" value="" style="shape=partialRectangle;connectable=0;fillColor=none;top=0;left=0;bottom=0;right=0;align=left;spacingLeft=6;overflow=hidden;" vertex="1" parent="U8JBfyUJ4JkSH4LKYdnJ-49">
                    <mxGeometry x="130" width="140" height="30" as="geometry"/>
                </mxCell>
                <mxCell id="U8JBfyUJ4JkSH4LKYdnJ-52" value="" style="shape=partialRectangle;collapsible=0;dropTarget=0;pointerEvents=0;fillColor=none;top=0;left=0;bottom=0;right=0;points=[[0,0.5],[1,0.5]];portConstraint=eastwest;" vertex="1" parent="U8JBfyUJ4JkSH4LKYdnJ-42">
                    <mxGeometry y="120" width="270" height="30" as="geometry"/>
                </mxCell>
                <mxCell id="U8JBfyUJ4JkSH4LKYdnJ-53" value="" style="shape=partialRectangle;connectable=0;fillColor=none;top=0;left=0;bottom=0;right=0;editable=1;overflow=hidden;" vertex="1" parent="U8JBfyUJ4JkSH4LKYdnJ-52">
                    <mxGeometry width="130" height="30" as="geometry"/>
                </mxCell>
                <mxCell id="U8JBfyUJ4JkSH4LKYdnJ-54" value="" style="shape=partialRectangle;connectable=0;fillColor=none;top=0;left=0;bottom=0;right=0;align=left;spacingLeft=6;overflow=hidden;" vertex="1" parent="U8JBfyUJ4JkSH4LKYdnJ-52">
                    <mxGeometry x="130" width="140" height="30" as="geometry"/>
                </mxCell>
                <mxCell id="U8JBfyUJ4JkSH4LKYdnJ-55" value="Database Name = airportsystem" style="text;html=1;strokeColor=none;fillColor=none;align=center;verticalAlign=middle;whiteSpace=wrap;rounded=0;fontSize=17;" vertex="1" parent="U8JBfyUJ4JkSH4LKYdnJ-1">
                    <mxGeometry x="240" y="170" width="250" height="20" as="geometry"/>
                </mxCell>
            </root>
        </mxGraphModel>
    </diagram>
</mxfile>